<?xml version="1.0" encoding="UTF-8" standalone="no"?>
<!-- Uploaded to: SVG Repo, www.svgrepo.com, Transformed by: SVG Repo Mixer Tools -->

<svg
   fill="#ffffff"
   width="156.25626"
   height="129.58965"
   viewBox="-4 0 25.001001 20.734343"
   version="1.1"
   stroke="#ffffff"
   id="svg1"
   sodipodi:docname="github-logo.svg"
   inkscape:version="1.4-beta3 (01c8a1ca, 2024-08-28)"
   xmlns:inkscape="http://www.inkscape.org/namespaces/inkscape"
   xmlns:sodipodi="http://sodipodi.sourceforge.net/DTD/sodipodi-0.dtd"
   xmlns="http://www.w3.org/2000/svg"
   xmlns:svg="http://www.w3.org/2000/svg">
  <defs
     id="defs1" />
  <sodipodi:namedview
     id="namedview1"
     pagecolor="#ffffff"
     bordercolor="#000000"
     borderopacity="0.25"
     inkscape:showpageshadow="2"
     inkscape:pageopacity="0.0"
     inkscape:pagecheckerboard="0"
     inkscape:deskcolor="#d1d1d1"
     inkscape:zoom="0.73539105"
     inkscape:cx="76.829872"
     inkscape:cy="63.911575"
     inkscape:window-width="1448"
     inkscape:window-height="675"
     inkscape:window-x="0"
     inkscape:window-y="33"
     inkscape:window-maximized="0"
     inkscape:current-layer="svg1" />
  <g
     id="SVGRepo_bgCarrier"
     stroke-width="0"
     transform="translate(-3.498,-5.7302399)" />
  <g
     id="SVGRepo_tracerCarrier"
     stroke-linecap="round"
     stroke-linejoin="round"
     transform="translate(-3.498,-5.7302399)" />
  <g
     id="SVGRepo_iconCarrier"
     transform="translate(-3.498,-5.7302399)">
    <title
       id="title1">github</title>
    <path
       d="m 23.563,20.469 -0.063,0.25 c -0.094,0.25 -0.219,0.5 -0.313,0.75 0,0.063 -0.063,0.188 -0.094,0.25 -1,2.219 -2.875,3.281 -5.781,3.813 -0.156,0.031 -0.438,0.094 -0.719,0.125 -2.813,0.344 -4.938,0.406 -7.75,0.156 -0.094,0 -0.219,-0.031 -0.281,-0.031 C 4.656,25.344 2.343,23.938 1.124,21.688 1.093,21.657 1.03,21.563 0.999,21.438 0.874,21.219 0.78,20.938 0.686,20.719 0.623,20.594 0.592,20.531 0.561,20.438 c -0.406,-1.156 -0.563,-2.5 -0.563,-4 0,-2.625 0.813,-3.656 1.906,-5.063 -0.844,-3 0.344,-5.063 0.344,-5.063 0,0 1.781,-0.375 5.156,2.031 1.813,-0.781 6.656,-0.844 8.969,-0.156 1.406,-0.938 4,-2.25 5.063,-1.875 0.25,0.438 0.844,1.75 0.344,4.656 0.344,0.625 2.219,2 2.219,5.844 -0.031,1.406 -0.188,2.625 -0.438,3.656 z M 3.094,19.563 c 0,3.469 2.438,5 5.844,5.281 0.219,0.031 0.438,0.031 0.688,0.063 1.594,0.031 3.594,0.063 5.563,0 0.438,-0.031 0.875,-0.063 1.281,-0.125 3.25,-0.469 4.594,-2.344 4.594,-4.969 0,-1.906 -0.875,-4.406 -4.375,-4.406 -0.25,0 -2.313,0.25 -4.281,0.25 -2.219,0 -4.5,-0.25 -4.844,-0.25 -3.594,0 -4.469,2.844 -4.469,4.156 z m 4.125,-1.594 c 0.688,0 1.219,0.813 1.219,1.813 0,1 -0.531,1.813 -1.219,1.813 -0.688,0 -1.188,-0.813 -1.188,-1.813 0,-1 0.5,-1.813 1.188,-1.813 z m 10.094,3.625 c -0.719,0 -1.25,-0.813 -1.25,-1.813 0,-1 0.531,-1.813 1.25,-1.813 0.688,0 1.219,0.813 1.219,1.813 0,1 -0.531,1.813 -1.219,1.813 z m -5.188,0.875 c -0.313,0 -0.563,-0.281 -0.563,-0.594 0,-0.281 0.25,-0.531 0.563,-0.531 0.313,0 0.594,0.25 0.594,0.531 0,0.313 -0.281,0.594 -0.594,0.594 z m 0.031,1.875 c -0.906,0 -1.625,-0.781 -1.625,-1.25 0,-0.188 0.125,-0.344 0.313,-0.344 0.188,0 0.313,0.156 0.313,0.344 0.031,0.094 0.438,0.625 1,0.625 0.438,0 0.844,-0.375 0.844,-0.625 0,-0.188 0.156,-0.344 0.313,-0.344 0.188,0 0.344,0.156 0.344,0.344 0,0.563 -0.625,1.25 -1.5,1.25 z"
       id="path1" />
  </g>
</svg>
