<?xml version="1.0" encoding="UTF-8" standalone="no"?>
<svg
   width="249.45993"
   height="230.75075"
   viewBox="0 0 498.91986 462.50042"
   fill="none"
   version="1.1"
   id="svg13"
   sodipodi:docname="hf-logo.svg"
   inkscape:version="1.4-beta3 (01c8a1ca, 2024-08-28)"
   xmlns:inkscape="http://www.inkscape.org/namespaces/inkscape"
   xmlns:sodipodi="http://sodipodi.sourceforge.net/DTD/sodipodi-0.dtd"
   xmlns="http://www.w3.org/2000/svg"
   xmlns:svg="http://www.w3.org/2000/svg">
  <defs
     id="defs13" />
  <sodipodi:namedview
     id="namedview13"
     pagecolor="#ffffff"
     bordercolor="#000000"
     borderopacity="0.25"
     inkscape:showpageshadow="2"
     inkscape:pageopacity="0.0"
     inkscape:pagecheckerboard="0"
     inkscape:deskcolor="#d1d1d1"
     inkscape:zoom="0.9004329"
     inkscape:cx="127.16106"
     inkscape:cy="113.83413"
     inkscape:window-width="1472"
     inkscape:window-height="686"
     inkscape:window-x="0"
     inkscape:window-y="33"
     inkscape:window-maximized="0"
     inkscape:current-layer="svg13" />
  <g
     id="g13"
     transform="translate(-0.54112483)">
    <path
       d="m 496.592,369.699 c 3.971,11.394 3.018,23.528 -2.277,34.079 -3.812,7.702 -9.265,13.663 -15.936,18.991 -8.048,6.33 -18.055,11.711 -30.126,16.881 -14.401,6.12 -31.979,11.87 -40.027,13.98 -20.596,5.328 -40.397,8.704 -60.464,8.863 -28.696,0.263 -53.422,-6.489 -71,-23.74 -9.106,1.108 -18.319,1.741 -27.584,1.741 -8.789,0 -17.472,-0.527 -26.102,-1.582 -17.631,17.145 -42.251,23.844 -70.842,23.581 -20.066,-0.159 -39.868,-3.535 -60.5163,-8.863 C 83.7229,451.52 66.145,445.77 51.7439,439.65 39.6723,434.48 29.6656,429.099 21.6708,422.769 14.9467,417.441 9.49334,411.48 5.68127,403.778 0.439661,393.227 -0.566304,381.093 3.45755,369.699 c -3.706181,-8.705 -4.6592,-18.675 -1.7472,-29.701 1.32364,-5.011 3.49441,-9.654 6.24757,-13.769 -0.5824,-2.162 -1.05891,-4.378 -1.37658,-6.805 -2.01193,-14.454 3.01789,-27.643 12.49516,-37.877 4.6592,-5.117 9.689,-8.652 14.9306,-10.92 -3.865,-16.354 -5.8769,-33.182 -5.8769,-50.38 C 28.1302,98.5969 127.085,0 249.178,0 c 41.933,0 81.165,11.6058 114.627,31.8633 6.035,3.6928 11.965,7.6493 17.631,11.8696 2.806,2.1102 5.612,4.2731 8.312,6.5415 2.753,2.2156 5.453,4.5368 8.048,6.9107 7.836,7.1218 15.195,14.7711 21.919,22.9479 2.277,2.6905 4.448,5.4864 6.565,8.3351 4.289,5.6447 8.26,11.5004 11.913,17.5669 5.559,9.074 10.43,18.569 14.666,28.434 2.806,6.595 5.242,13.347 7.412,20.258 3.23,10.34 5.719,20.996 7.413,31.969 0.529,3.64 1.006,7.332 1.376,11.025 0.742,7.386 1.165,14.877 1.165,22.526 0,16.987 -2.012,33.657 -5.771,49.747 5.824,2.268 11.33,5.961 16.466,11.553 9.477,10.234 14.507,23.475 12.495,37.93 -0.317,2.374 -0.794,4.59 -1.376,6.752 2.753,4.115 4.924,8.758 6.247,13.769 2.912,11.026 1.959,20.996 -1.694,29.701 z"
       fill="#ffffff"
       id="path1" />
    <path
       d="M 433.839,221.75 C 433.839,120.838 351.531,39.0323 250,39.0323 148.469,39.0323 66.1613,120.838 66.1613,221.75 c 0,100.912 82.3077,182.718 183.8387,182.718 101.531,0 183.839,-81.806 183.839,-182.718 z M 45,221.75 C 45,109.222 136.782,18 250,18 363.218,18 455,109.222 455,221.75 455,334.278 363.218,425.5 250,425.5 136.782,425.5 45,334.278 45,221.75 Z"
       fill="#000000"
       id="path2" />
    <path
       d="m 250,405.5 c 102.173,0 185,-82.268 185,-183.75 C 435,120.268 352.173,38 250,38 147.827,38 65,120.268 65,221.75 65,323.232 147.827,405.5 250,405.5 Z"
       fill="#ffffff"
       id="path3" />
    <path
       d="m 202.198,404.174 c 14.591,-21.056 13.557,-36.858 -6.463,-56.547 -20.02,-19.684 -31.673,-48.482 -31.673,-48.482 0,0 -4.353,-16.726 -14.268,-15.187 -9.914,1.539 -17.194,26.534 3.574,41.825 20.767,15.286 -4.136,25.673 -12.126,11.316 -7.99,-14.358 -29.807,-51.268 -41.121,-58.327 -11.3093,-7.059 -19.2727,-3.104 -16.6059,11.446 2.6669,14.551 49.9649,49.818 45.3629,57.45 -4.602,7.628 -20.82,-8.968 -20.82,-8.968 0,0 -50.7501,-45.445 -61.7993,-33.603 -11.0491,11.843 8.3823,21.766 36.0741,38.262 27.6972,16.491 29.8442,20.847 25.9152,27.087 -3.934,6.239 -65.0644,-44.475 -70.8063,-22.976 -5.7367,21.499 62.3874,27.739 58.183,42.581 -4.2044,14.848 -47.9875,-28.093 -56.9424,-11.362 -8.9602,16.736 61.7827,36.399 62.3557,36.545 22.851,5.833 80.886,18.192 101.16,-11.06 z"
       fill="#ffffff"
       id="path4" />
    <path
       d="m 90.9935,255 c -8.5191,0 -16.1332,3.477 -21.4425,9.784 -3.2835,3.906 -6.7143,10.202 -6.9932,19.63 -3.5728,-1.02 -7.0089,-1.59 -10.2187,-1.59 -8.1561,0 -15.5228,3.106 -20.7322,8.749 -6.6932,7.242 -9.6662,16.142 -8.3718,25.047 0.6157,4.241 2.0417,8.043 4.1728,11.562 -4.4937,3.613 -7.8035,8.644 -9.4032,14.694 -1.2523,4.743 -2.5362,14.621 4.1675,24.797 -0.4262,0.664 -0.8261,1.354 -1.1997,2.06 -4.0307,7.603 -4.2885,16.194 -0.7314,24.195 5.3935,12.126 18.7957,21.68 44.8214,31.935 16.1911,6.379 31.0036,10.458 31.1351,10.494 21.4054,5.517 40.7644,8.32 57.5234,8.32 30.804,0 52.857,-9.376 65.549,-27.866 20.427,-29.775 17.506,-57.008 -8.924,-83.259 -14.629,-14.526 -24.353,-35.945 -26.379,-40.646 -4.083,-13.92 -14.881,-29.393 -32.829,-29.393 h -0.005 c -1.511,0 -3.037,0.12 -4.541,0.356 -7.862,1.228 -14.734,5.726 -19.643,12.492 -5.299,-6.547 -10.445,-11.755 -15.102,-14.694 C 104.827,257.243 97.813,255 90.9935,255 Z m 0,20.917 c 2.6836,0 5.9618,1.134 9.5765,3.414 11.224,7.075 32.882,44.072 40.812,58.462 2.657,4.821 7.199,6.861 11.287,6.861 8.114,0 14.449,-8.016 0.742,-18.203 -20.611,-15.327 -13.381,-40.379 -3.541,-41.922 0.431,-0.068 0.857,-0.099 1.268,-0.099 8.945,0 12.892,15.321 12.892,15.321 0,0 11.565,28.865 31.435,48.595 19.869,19.734 20.895,35.573 6.414,56.678 -9.877,14.391 -28.783,16.268 -48.158,16.268 -20.095,0 -40.731,-3.52 -52.276,-6.496 -0.568,-0.146 -70.7431,-18.541 -61.8504,-35.316 1.4944,-2.819 3.957,-3.948 7.0563,-3.948 12.5235,0 35.3026,18.522 45.0951,18.522 2.189,0 3.8202,-1.683 4.4516,-3.942 4.3574,-15.59 -63.533,-20.374 -57.8343,-41.923 1.005,-3.812 3.7307,-5.36 7.5615,-5.355 16.5489,0 53.6773,28.922 61.4602,28.922 0.594,0 1.02,-0.172 1.252,-0.538 3.899,-6.254 2.103,-11.346 -25.38,-27.875 -27.4832,-16.535 -47.1142,-25.755 -36.143,-37.625 1.2628,-1.371 3.0519,-1.977 5.2251,-1.977 16.6857,0.005 56.1079,35.657 56.1079,35.657 0,0 10.64,10.997 17.076,10.997 1.478,0 2.736,-0.58 3.588,-2.013 4.562,-7.645 -42.3744,-42.994 -45.0212,-57.578 -1.7943,-9.883 1.2576,-14.887 6.9037,-14.887 z"
       fill="#000000"
       id="path5" />
    <path
       d="m 296.9,404.174 c -14.59,-21.056 -13.557,-36.858 6.463,-56.547 20.02,-19.684 31.674,-48.482 31.674,-48.482 0,0 4.353,-16.726 14.267,-15.187 9.915,1.539 17.194,26.534 -3.573,41.825 -20.768,15.286 4.135,25.673 12.125,11.316 7.99,-14.358 29.807,-51.268 41.122,-58.327 11.309,-7.059 19.272,-3.104 16.605,11.446 -2.667,14.551 -49.965,49.818 -45.363,57.45 4.602,7.628 20.821,-8.968 20.821,-8.968 0,0 50.75,-45.445 61.799,-33.603 11.049,11.843 -8.383,21.766 -36.074,38.262 -27.698,16.491 -29.845,20.847 -25.916,27.087 3.934,6.239 65.065,-44.475 70.807,-22.976 5.736,21.499 -62.388,27.739 -58.183,42.581 4.204,14.848 47.987,-28.093 56.942,-11.362 8.96,16.736 -61.783,36.399 -62.356,36.545 -22.851,5.833 -80.885,18.192 -101.16,-11.06 z"
       fill="#ffffff"
       id="path6" />
    <path
       d="m 408.105,255 c 8.519,0 16.133,3.477 21.442,9.784 3.284,3.906 6.715,10.202 6.994,19.63 3.572,-1.02 7.008,-1.59 10.218,-1.59 8.156,0 15.523,3.106 20.732,8.749 6.694,7.242 9.667,16.142 8.372,25.047 -0.615,4.241 -2.041,8.043 -4.173,11.562 4.494,3.613 7.804,8.644 9.404,14.694 1.252,4.743 2.536,14.621 -4.168,24.797 0.426,0.664 0.826,1.354 1.2,2.06 4.031,7.603 4.288,16.194 0.731,24.195 -5.393,12.126 -18.795,21.68 -44.821,31.935 -16.191,6.379 -31.004,10.458 -31.135,10.494 -21.406,5.517 -40.765,8.32 -57.524,8.32 -30.804,0 -52.857,-9.376 -65.548,-27.866 -20.427,-29.775 -17.507,-57.008 8.924,-83.259 14.628,-14.526 24.352,-35.945 26.378,-40.646 4.083,-13.92 14.881,-29.393 32.83,-29.393 h 0.005 c 1.51,0 3.036,0.12 4.541,0.356 7.861,1.228 14.733,5.726 19.643,12.492 5.299,-6.547 10.445,-11.755 15.102,-14.694 7.019,-4.424 14.033,-6.667 20.853,-6.667 z m 0,20.917 c -2.684,0 -5.962,1.134 -9.577,3.414 -11.224,7.075 -32.882,44.072 -40.812,58.462 -2.657,4.821 -7.198,6.861 -11.287,6.861 -8.114,0 -14.449,-8.016 -0.742,-18.203 20.612,-15.327 13.382,-40.379 3.542,-41.922 -0.432,-0.068 -0.858,-0.099 -1.268,-0.099 -8.946,0 -12.892,15.321 -12.892,15.321 0,0 -11.566,28.865 -31.435,48.595 -19.87,19.734 -20.896,35.573 -6.415,56.678 9.877,14.391 28.783,16.268 48.158,16.268 20.095,0 40.731,-3.52 52.276,-6.496 0.568,-0.146 70.744,-18.541 61.851,-35.316 -1.495,-2.819 -3.957,-3.948 -7.057,-3.948 -12.523,0 -35.302,18.522 -45.095,18.522 -2.189,0 -3.82,-1.683 -4.451,-3.942 -4.358,-15.59 63.533,-20.374 57.834,-41.923 -1.005,-3.812 -3.731,-5.36 -7.561,-5.355 -16.549,0 -53.678,28.922 -61.46,28.922 -0.595,0 -1.021,-0.172 -1.253,-0.538 -3.899,-6.254 -2.103,-11.346 25.38,-27.875 27.484,-16.535 47.115,-25.755 36.143,-37.625 -1.262,-1.371 -3.052,-1.977 -5.225,-1.977 -16.685,0.005 -56.108,35.657 -56.108,35.657 0,0 -10.64,10.997 -17.075,10.997 -1.479,0 -2.736,-0.58 -3.589,-2.013 -4.562,-7.645 42.375,-42.994 45.022,-57.578 1.794,-9.883 -1.258,-14.887 -6.904,-14.887 z"
       fill="#000000"
       id="path7" />
    <path
       d="m 319.277,228.901 c 0,-23.665 -30.692,12.403 -68.64,12.564 C 212.692,241.306 182,205.238 182,228.901 c 0,15.69 7.507,41.208 27.669,56.69 4.012,-13.804 26.057,-24.862 29.208,-23.274 4.487,2.261 4.235,8.527 11.76,14.048 7.526,-5.521 7.274,-11.785 11.761,-14.048 3.153,-1.588 25.196,9.47 29.207,23.274 20.162,-15.482 27.67,-41 27.67,-56.688 z"
       fill="#0e1116"
       id="path8" />
    <path
       d="m 262.4,262.315 c -4.487,2.261 -4.235,8.527 -11.761,14.048 -7.525,-5.521 -7.273,-11.785 -11.76,-14.048 -3.153,-1.588 -25.196,9.47 -29.207,23.274 10.194,7.828 23.625,13.089 40.955,13.217 0.004,0 0.008,0 0.014,0 0.005,0 0.009,0 0.015,0 17.33,-0.126 30.761,-5.389 40.955,-13.217 -4.011,-13.804 -26.056,-24.862 -29.207,-23.274 z"
       fill="#ff323d"
       id="path9" />
    <path
       d="m 373,196 c 9.389,0 17,-7.611 17,-17 0,-9.389 -7.611,-17 -17,-17 -9.389,0 -17,7.611 -17,17 0,9.389 7.611,17 17,17 z"
       fill="#000000"
       id="path10" />
    <path
       d="m 128,196 c 9.389,0 17,-7.611 17,-17 0,-9.389 -7.611,-17 -17,-17 -9.389,0 -17,7.611 -17,17 0,9.389 7.611,17 17,17 z"
       fill="#000000"
       id="path11" />
    <path
       d="m 313.06,171.596 c 6.736,2.372 9.416,16.183 16.221,12.575 12.886,-6.834 17.779,-22.794 10.927,-35.647 -6.852,-12.853 -22.854,-17.732 -35.741,-10.898 -12.887,6.834 -17.779,22.793 -10.927,35.646 3.234,6.067 13.499,-3.797 19.52,-1.676 z"
       fill="#0e1116"
       id="path12" />
    <path
       d="m 188.554,171.596 c -6.736,2.372 -9.416,16.183 -16.22,12.575 -12.887,-6.834 -17.779,-22.794 -10.927,-35.647 6.852,-12.853 22.853,-17.732 35.74,-10.898 12.887,6.834 17.779,22.793 10.927,35.646 -3.234,6.067 -13.499,-3.797 -19.52,-1.676 z"
       fill="#0e1116"
       id="path13" />
  </g>
</svg>
